G04 MADE WITH FRITZING*
G04 WWW.FRITZING.ORG*
G04 DOUBLE SIDED*
G04 HOLES PLATED*
G04 CONTOUR ON CENTER OF CONTOUR VECTOR*
%ASAXBY*%
%FSLAX23Y23*%
%MOIN*%
%OFA0B0*%
%SFA1.0B1.0*%
%ADD10C,0.066567X0.046567*%
%ADD11C,0.010000*%
%ADD12C,0.008000*%
%ADD13R,0.001000X0.001000*%
%LNSILK1*%
G90*
G70*
G54D10*
X955Y555D03*
G54D11*
X105Y305D02*
X105Y105D01*
D02*
X105Y105D02*
X205Y105D01*
D02*
X205Y105D02*
X205Y305D01*
D02*
X205Y305D02*
X105Y305D01*
D02*
X405Y505D02*
X405Y205D01*
D02*
X405Y205D02*
X505Y205D01*
D02*
X505Y205D02*
X505Y505D01*
D02*
X505Y505D02*
X405Y505D01*
G54D12*
D02*
X1105Y605D02*
X1105Y205D01*
D02*
X1105Y605D02*
X945Y605D01*
D02*
X1105Y205D02*
X905Y205D01*
D02*
X905Y605D02*
X905Y205D01*
D02*
X905Y605D02*
X945Y605D01*
D02*
X945Y605D02*
X965Y605D01*
G54D11*
D02*
X1405Y505D02*
X1405Y205D01*
D02*
X1405Y205D02*
X1505Y205D01*
D02*
X1505Y205D02*
X1505Y505D01*
D02*
X1505Y505D02*
X1405Y505D01*
G54D13*
X0Y709D02*
X1770Y709D01*
X0Y708D02*
X1770Y708D01*
X0Y707D02*
X1770Y707D01*
X0Y706D02*
X1770Y706D01*
X0Y705D02*
X1770Y705D01*
X0Y704D02*
X1770Y704D01*
X0Y703D02*
X1770Y703D01*
X0Y702D02*
X1770Y702D01*
X0Y701D02*
X7Y701D01*
X1763Y701D02*
X1770Y701D01*
X0Y700D02*
X7Y700D01*
X1763Y700D02*
X1770Y700D01*
X0Y699D02*
X7Y699D01*
X1763Y699D02*
X1770Y699D01*
X0Y698D02*
X7Y698D01*
X1763Y698D02*
X1770Y698D01*
X0Y697D02*
X7Y697D01*
X1763Y697D02*
X1770Y697D01*
X0Y696D02*
X7Y696D01*
X1763Y696D02*
X1770Y696D01*
X0Y695D02*
X7Y695D01*
X1763Y695D02*
X1770Y695D01*
X0Y694D02*
X7Y694D01*
X1763Y694D02*
X1770Y694D01*
X0Y693D02*
X7Y693D01*
X1763Y693D02*
X1770Y693D01*
X0Y692D02*
X7Y692D01*
X1763Y692D02*
X1770Y692D01*
X0Y691D02*
X7Y691D01*
X1763Y691D02*
X1770Y691D01*
X0Y690D02*
X7Y690D01*
X1763Y690D02*
X1770Y690D01*
X0Y689D02*
X7Y689D01*
X1763Y689D02*
X1770Y689D01*
X0Y688D02*
X7Y688D01*
X1763Y688D02*
X1770Y688D01*
X0Y687D02*
X7Y687D01*
X1763Y687D02*
X1770Y687D01*
X0Y686D02*
X7Y686D01*
X1763Y686D02*
X1770Y686D01*
X0Y685D02*
X7Y685D01*
X1763Y685D02*
X1770Y685D01*
X0Y684D02*
X7Y684D01*
X1763Y684D02*
X1770Y684D01*
X0Y683D02*
X7Y683D01*
X1763Y683D02*
X1770Y683D01*
X0Y682D02*
X7Y682D01*
X1763Y682D02*
X1770Y682D01*
X0Y681D02*
X7Y681D01*
X1763Y681D02*
X1770Y681D01*
X0Y680D02*
X7Y680D01*
X1763Y680D02*
X1770Y680D01*
X0Y679D02*
X7Y679D01*
X1763Y679D02*
X1770Y679D01*
X0Y678D02*
X7Y678D01*
X1763Y678D02*
X1770Y678D01*
X0Y677D02*
X7Y677D01*
X1763Y677D02*
X1770Y677D01*
X0Y676D02*
X7Y676D01*
X1763Y676D02*
X1770Y676D01*
X0Y675D02*
X7Y675D01*
X1763Y675D02*
X1770Y675D01*
X0Y674D02*
X7Y674D01*
X1763Y674D02*
X1770Y674D01*
X0Y673D02*
X7Y673D01*
X1763Y673D02*
X1770Y673D01*
X0Y672D02*
X7Y672D01*
X1763Y672D02*
X1770Y672D01*
X0Y671D02*
X7Y671D01*
X1763Y671D02*
X1770Y671D01*
X0Y670D02*
X7Y670D01*
X1763Y670D02*
X1770Y670D01*
X0Y669D02*
X7Y669D01*
X1218Y669D02*
X1220Y669D01*
X1246Y669D02*
X1248Y669D01*
X1268Y669D02*
X1286Y669D01*
X1763Y669D02*
X1770Y669D01*
X0Y668D02*
X7Y668D01*
X1217Y668D02*
X1222Y668D01*
X1245Y668D02*
X1249Y668D01*
X1267Y668D02*
X1286Y668D01*
X1763Y668D02*
X1770Y668D01*
X0Y667D02*
X7Y667D01*
X1217Y667D02*
X1222Y667D01*
X1244Y667D02*
X1250Y667D01*
X1267Y667D02*
X1286Y667D01*
X1763Y667D02*
X1770Y667D01*
X0Y666D02*
X7Y666D01*
X1216Y666D02*
X1222Y666D01*
X1244Y666D02*
X1250Y666D01*
X1266Y666D02*
X1286Y666D01*
X1763Y666D02*
X1770Y666D01*
X0Y665D02*
X7Y665D01*
X1216Y665D02*
X1222Y665D01*
X1244Y665D02*
X1250Y665D01*
X1267Y665D02*
X1286Y665D01*
X1763Y665D02*
X1770Y665D01*
X0Y664D02*
X7Y664D01*
X1216Y664D02*
X1222Y664D01*
X1244Y664D02*
X1250Y664D01*
X1267Y664D02*
X1286Y664D01*
X1763Y664D02*
X1770Y664D01*
X0Y663D02*
X7Y663D01*
X1216Y663D02*
X1222Y663D01*
X1244Y663D02*
X1250Y663D01*
X1268Y663D02*
X1286Y663D01*
X1763Y663D02*
X1770Y663D01*
X0Y662D02*
X7Y662D01*
X1216Y662D02*
X1222Y662D01*
X1244Y662D02*
X1250Y662D01*
X1280Y662D02*
X1286Y662D01*
X1763Y662D02*
X1770Y662D01*
X0Y661D02*
X7Y661D01*
X1216Y661D02*
X1222Y661D01*
X1244Y661D02*
X1250Y661D01*
X1280Y661D02*
X1286Y661D01*
X1763Y661D02*
X1770Y661D01*
X0Y660D02*
X7Y660D01*
X1216Y660D02*
X1222Y660D01*
X1244Y660D02*
X1250Y660D01*
X1280Y660D02*
X1286Y660D01*
X1763Y660D02*
X1770Y660D01*
X0Y659D02*
X7Y659D01*
X1216Y659D02*
X1222Y659D01*
X1244Y659D02*
X1250Y659D01*
X1280Y659D02*
X1286Y659D01*
X1763Y659D02*
X1770Y659D01*
X0Y658D02*
X7Y658D01*
X1216Y658D02*
X1222Y658D01*
X1244Y658D02*
X1250Y658D01*
X1280Y658D02*
X1286Y658D01*
X1763Y658D02*
X1770Y658D01*
X0Y657D02*
X7Y657D01*
X1216Y657D02*
X1222Y657D01*
X1244Y657D02*
X1250Y657D01*
X1280Y657D02*
X1286Y657D01*
X1763Y657D02*
X1770Y657D01*
X0Y656D02*
X7Y656D01*
X1216Y656D02*
X1222Y656D01*
X1244Y656D02*
X1250Y656D01*
X1280Y656D02*
X1286Y656D01*
X1763Y656D02*
X1770Y656D01*
X0Y655D02*
X7Y655D01*
X1216Y655D02*
X1222Y655D01*
X1244Y655D02*
X1250Y655D01*
X1280Y655D02*
X1286Y655D01*
X1763Y655D02*
X1770Y655D01*
X0Y654D02*
X7Y654D01*
X1216Y654D02*
X1222Y654D01*
X1244Y654D02*
X1250Y654D01*
X1280Y654D02*
X1286Y654D01*
X1763Y654D02*
X1770Y654D01*
X0Y653D02*
X7Y653D01*
X1216Y653D02*
X1222Y653D01*
X1244Y653D02*
X1250Y653D01*
X1280Y653D02*
X1286Y653D01*
X1763Y653D02*
X1770Y653D01*
X0Y652D02*
X7Y652D01*
X1216Y652D02*
X1222Y652D01*
X1244Y652D02*
X1250Y652D01*
X1280Y652D02*
X1286Y652D01*
X1763Y652D02*
X1770Y652D01*
X0Y651D02*
X7Y651D01*
X1216Y651D02*
X1222Y651D01*
X1244Y651D02*
X1250Y651D01*
X1280Y651D02*
X1286Y651D01*
X1763Y651D02*
X1770Y651D01*
X0Y650D02*
X7Y650D01*
X1216Y650D02*
X1222Y650D01*
X1244Y650D02*
X1250Y650D01*
X1280Y650D02*
X1286Y650D01*
X1763Y650D02*
X1770Y650D01*
X0Y649D02*
X7Y649D01*
X1216Y649D02*
X1222Y649D01*
X1244Y649D02*
X1250Y649D01*
X1280Y649D02*
X1286Y649D01*
X1763Y649D02*
X1770Y649D01*
X0Y648D02*
X7Y648D01*
X1216Y648D02*
X1222Y648D01*
X1244Y648D02*
X1250Y648D01*
X1280Y648D02*
X1286Y648D01*
X1763Y648D02*
X1770Y648D01*
X0Y647D02*
X7Y647D01*
X1216Y647D02*
X1222Y647D01*
X1244Y647D02*
X1250Y647D01*
X1280Y647D02*
X1286Y647D01*
X1763Y647D02*
X1770Y647D01*
X0Y646D02*
X7Y646D01*
X1216Y646D02*
X1222Y646D01*
X1244Y646D02*
X1250Y646D01*
X1280Y646D02*
X1286Y646D01*
X1763Y646D02*
X1770Y646D01*
X0Y645D02*
X7Y645D01*
X1216Y645D02*
X1222Y645D01*
X1244Y645D02*
X1250Y645D01*
X1280Y645D02*
X1286Y645D01*
X1763Y645D02*
X1770Y645D01*
X0Y644D02*
X7Y644D01*
X1216Y644D02*
X1222Y644D01*
X1244Y644D02*
X1250Y644D01*
X1280Y644D02*
X1286Y644D01*
X1763Y644D02*
X1770Y644D01*
X0Y643D02*
X7Y643D01*
X1216Y643D02*
X1222Y643D01*
X1244Y643D02*
X1250Y643D01*
X1280Y643D02*
X1286Y643D01*
X1763Y643D02*
X1770Y643D01*
X0Y642D02*
X7Y642D01*
X1216Y642D02*
X1222Y642D01*
X1244Y642D02*
X1250Y642D01*
X1280Y642D02*
X1286Y642D01*
X1763Y642D02*
X1770Y642D01*
X0Y641D02*
X7Y641D01*
X1216Y641D02*
X1222Y641D01*
X1244Y641D02*
X1250Y641D01*
X1280Y641D02*
X1286Y641D01*
X1763Y641D02*
X1770Y641D01*
X0Y640D02*
X7Y640D01*
X1216Y640D02*
X1222Y640D01*
X1244Y640D02*
X1250Y640D01*
X1280Y640D02*
X1286Y640D01*
X1763Y640D02*
X1770Y640D01*
X0Y639D02*
X7Y639D01*
X1216Y639D02*
X1222Y639D01*
X1244Y639D02*
X1250Y639D01*
X1280Y639D02*
X1286Y639D01*
X1295Y639D02*
X1299Y639D01*
X1763Y639D02*
X1770Y639D01*
X0Y638D02*
X7Y638D01*
X1216Y638D02*
X1222Y638D01*
X1244Y638D02*
X1250Y638D01*
X1280Y638D02*
X1286Y638D01*
X1294Y638D02*
X1300Y638D01*
X1763Y638D02*
X1770Y638D01*
X0Y637D02*
X7Y637D01*
X1216Y637D02*
X1222Y637D01*
X1244Y637D02*
X1250Y637D01*
X1280Y637D02*
X1286Y637D01*
X1294Y637D02*
X1300Y637D01*
X1763Y637D02*
X1770Y637D01*
X0Y636D02*
X7Y636D01*
X1216Y636D02*
X1222Y636D01*
X1244Y636D02*
X1250Y636D01*
X1280Y636D02*
X1286Y636D01*
X1294Y636D02*
X1300Y636D01*
X1763Y636D02*
X1770Y636D01*
X0Y635D02*
X7Y635D01*
X1216Y635D02*
X1222Y635D01*
X1244Y635D02*
X1250Y635D01*
X1280Y635D02*
X1286Y635D01*
X1294Y635D02*
X1300Y635D01*
X1763Y635D02*
X1770Y635D01*
X0Y634D02*
X7Y634D01*
X1216Y634D02*
X1222Y634D01*
X1244Y634D02*
X1250Y634D01*
X1280Y634D02*
X1286Y634D01*
X1294Y634D02*
X1300Y634D01*
X1763Y634D02*
X1770Y634D01*
X0Y633D02*
X7Y633D01*
X1216Y633D02*
X1222Y633D01*
X1244Y633D02*
X1250Y633D01*
X1280Y633D02*
X1286Y633D01*
X1294Y633D02*
X1300Y633D01*
X1763Y633D02*
X1770Y633D01*
X0Y632D02*
X7Y632D01*
X1216Y632D02*
X1222Y632D01*
X1244Y632D02*
X1250Y632D01*
X1280Y632D02*
X1286Y632D01*
X1294Y632D02*
X1300Y632D01*
X1763Y632D02*
X1770Y632D01*
X0Y631D02*
X7Y631D01*
X1216Y631D02*
X1222Y631D01*
X1244Y631D02*
X1250Y631D01*
X1280Y631D02*
X1286Y631D01*
X1294Y631D02*
X1300Y631D01*
X1763Y631D02*
X1770Y631D01*
X0Y630D02*
X7Y630D01*
X1216Y630D02*
X1222Y630D01*
X1244Y630D02*
X1250Y630D01*
X1280Y630D02*
X1286Y630D01*
X1294Y630D02*
X1300Y630D01*
X1763Y630D02*
X1770Y630D01*
X0Y629D02*
X7Y629D01*
X1216Y629D02*
X1222Y629D01*
X1244Y629D02*
X1250Y629D01*
X1280Y629D02*
X1286Y629D01*
X1294Y629D02*
X1300Y629D01*
X1763Y629D02*
X1770Y629D01*
X0Y628D02*
X7Y628D01*
X1216Y628D02*
X1222Y628D01*
X1244Y628D02*
X1250Y628D01*
X1280Y628D02*
X1286Y628D01*
X1294Y628D02*
X1300Y628D01*
X1763Y628D02*
X1770Y628D01*
X0Y627D02*
X7Y627D01*
X1216Y627D02*
X1222Y627D01*
X1244Y627D02*
X1250Y627D01*
X1280Y627D02*
X1286Y627D01*
X1294Y627D02*
X1300Y627D01*
X1763Y627D02*
X1770Y627D01*
X0Y626D02*
X7Y626D01*
X1216Y626D02*
X1222Y626D01*
X1244Y626D02*
X1250Y626D01*
X1280Y626D02*
X1286Y626D01*
X1294Y626D02*
X1300Y626D01*
X1763Y626D02*
X1770Y626D01*
X0Y625D02*
X7Y625D01*
X1216Y625D02*
X1223Y625D01*
X1244Y625D02*
X1250Y625D01*
X1280Y625D02*
X1286Y625D01*
X1294Y625D02*
X1300Y625D01*
X1763Y625D02*
X1770Y625D01*
X0Y624D02*
X7Y624D01*
X1217Y624D02*
X1223Y624D01*
X1243Y624D02*
X1250Y624D01*
X1280Y624D02*
X1286Y624D01*
X1294Y624D02*
X1300Y624D01*
X1763Y624D02*
X1770Y624D01*
X0Y623D02*
X7Y623D01*
X1217Y623D02*
X1224Y623D01*
X1242Y623D02*
X1250Y623D01*
X1280Y623D02*
X1286Y623D01*
X1294Y623D02*
X1300Y623D01*
X1763Y623D02*
X1770Y623D01*
X0Y622D02*
X7Y622D01*
X1217Y622D02*
X1249Y622D01*
X1268Y622D02*
X1300Y622D01*
X1763Y622D02*
X1770Y622D01*
X0Y621D02*
X7Y621D01*
X1218Y621D02*
X1249Y621D01*
X1267Y621D02*
X1300Y621D01*
X1763Y621D02*
X1770Y621D01*
X0Y620D02*
X7Y620D01*
X1218Y620D02*
X1248Y620D01*
X1267Y620D02*
X1300Y620D01*
X1763Y620D02*
X1770Y620D01*
X0Y619D02*
X7Y619D01*
X1219Y619D02*
X1247Y619D01*
X1266Y619D02*
X1300Y619D01*
X1763Y619D02*
X1770Y619D01*
X0Y618D02*
X7Y618D01*
X1220Y618D02*
X1246Y618D01*
X1267Y618D02*
X1300Y618D01*
X1763Y618D02*
X1770Y618D01*
X0Y617D02*
X7Y617D01*
X1221Y617D02*
X1245Y617D01*
X1267Y617D02*
X1299Y617D01*
X1763Y617D02*
X1770Y617D01*
X0Y616D02*
X7Y616D01*
X1223Y616D02*
X1243Y616D01*
X1268Y616D02*
X1298Y616D01*
X1763Y616D02*
X1770Y616D01*
X0Y615D02*
X7Y615D01*
X1763Y615D02*
X1770Y615D01*
X0Y614D02*
X7Y614D01*
X1763Y614D02*
X1770Y614D01*
X0Y613D02*
X7Y613D01*
X1763Y613D02*
X1770Y613D01*
X0Y612D02*
X7Y612D01*
X1763Y612D02*
X1770Y612D01*
X0Y611D02*
X7Y611D01*
X1763Y611D02*
X1770Y611D01*
X0Y610D02*
X7Y610D01*
X1763Y610D02*
X1770Y610D01*
X0Y609D02*
X7Y609D01*
X1763Y609D02*
X1770Y609D01*
X0Y608D02*
X7Y608D01*
X1763Y608D02*
X1770Y608D01*
X0Y607D02*
X7Y607D01*
X1763Y607D02*
X1770Y607D01*
X0Y606D02*
X7Y606D01*
X1763Y606D02*
X1770Y606D01*
X0Y605D02*
X7Y605D01*
X558Y605D02*
X561Y605D01*
X584Y605D02*
X612Y605D01*
X1558Y605D02*
X1561Y605D01*
X1584Y605D02*
X1611Y605D01*
X1763Y605D02*
X1770Y605D01*
X0Y604D02*
X7Y604D01*
X557Y604D02*
X562Y604D01*
X583Y604D02*
X613Y604D01*
X1557Y604D02*
X1562Y604D01*
X1583Y604D02*
X1613Y604D01*
X1763Y604D02*
X1770Y604D01*
X0Y603D02*
X7Y603D01*
X557Y603D02*
X563Y603D01*
X583Y603D02*
X614Y603D01*
X1557Y603D02*
X1562Y603D01*
X1582Y603D02*
X1614Y603D01*
X1763Y603D02*
X1770Y603D01*
X0Y602D02*
X7Y602D01*
X557Y602D02*
X563Y602D01*
X583Y602D02*
X615Y602D01*
X1556Y602D02*
X1562Y602D01*
X1582Y602D02*
X1615Y602D01*
X1763Y602D02*
X1770Y602D01*
X0Y601D02*
X7Y601D01*
X557Y601D02*
X563Y601D01*
X583Y601D02*
X616Y601D01*
X1556Y601D02*
X1562Y601D01*
X1582Y601D02*
X1615Y601D01*
X1763Y601D02*
X1770Y601D01*
X0Y600D02*
X7Y600D01*
X557Y600D02*
X563Y600D01*
X583Y600D02*
X616Y600D01*
X1556Y600D02*
X1562Y600D01*
X1583Y600D02*
X1616Y600D01*
X1763Y600D02*
X1770Y600D01*
X0Y599D02*
X7Y599D01*
X557Y599D02*
X563Y599D01*
X584Y599D02*
X616Y599D01*
X1556Y599D02*
X1562Y599D01*
X1584Y599D02*
X1616Y599D01*
X1763Y599D02*
X1770Y599D01*
X0Y598D02*
X7Y598D01*
X557Y598D02*
X563Y598D01*
X610Y598D02*
X616Y598D01*
X1556Y598D02*
X1562Y598D01*
X1610Y598D02*
X1616Y598D01*
X1763Y598D02*
X1770Y598D01*
X0Y597D02*
X7Y597D01*
X557Y597D02*
X563Y597D01*
X610Y597D02*
X616Y597D01*
X1556Y597D02*
X1562Y597D01*
X1610Y597D02*
X1616Y597D01*
X1763Y597D02*
X1770Y597D01*
X0Y596D02*
X7Y596D01*
X557Y596D02*
X563Y596D01*
X610Y596D02*
X616Y596D01*
X1556Y596D02*
X1562Y596D01*
X1610Y596D02*
X1616Y596D01*
X1763Y596D02*
X1770Y596D01*
X0Y595D02*
X7Y595D01*
X557Y595D02*
X563Y595D01*
X610Y595D02*
X616Y595D01*
X1556Y595D02*
X1562Y595D01*
X1610Y595D02*
X1616Y595D01*
X1763Y595D02*
X1770Y595D01*
X0Y594D02*
X7Y594D01*
X557Y594D02*
X563Y594D01*
X610Y594D02*
X616Y594D01*
X1556Y594D02*
X1562Y594D01*
X1610Y594D02*
X1616Y594D01*
X1763Y594D02*
X1770Y594D01*
X0Y593D02*
X7Y593D01*
X557Y593D02*
X563Y593D01*
X610Y593D02*
X616Y593D01*
X1556Y593D02*
X1562Y593D01*
X1610Y593D02*
X1616Y593D01*
X1763Y593D02*
X1770Y593D01*
X0Y592D02*
X7Y592D01*
X557Y592D02*
X563Y592D01*
X610Y592D02*
X616Y592D01*
X1556Y592D02*
X1562Y592D01*
X1610Y592D02*
X1616Y592D01*
X1763Y592D02*
X1770Y592D01*
X0Y591D02*
X7Y591D01*
X557Y591D02*
X563Y591D01*
X610Y591D02*
X616Y591D01*
X1556Y591D02*
X1562Y591D01*
X1610Y591D02*
X1616Y591D01*
X1763Y591D02*
X1770Y591D01*
X0Y590D02*
X7Y590D01*
X557Y590D02*
X563Y590D01*
X610Y590D02*
X616Y590D01*
X1556Y590D02*
X1562Y590D01*
X1610Y590D02*
X1616Y590D01*
X1763Y590D02*
X1770Y590D01*
X0Y589D02*
X7Y589D01*
X557Y589D02*
X563Y589D01*
X610Y589D02*
X616Y589D01*
X1556Y589D02*
X1562Y589D01*
X1610Y589D02*
X1616Y589D01*
X1763Y589D02*
X1770Y589D01*
X0Y588D02*
X7Y588D01*
X557Y588D02*
X563Y588D01*
X610Y588D02*
X616Y588D01*
X1556Y588D02*
X1562Y588D01*
X1610Y588D02*
X1616Y588D01*
X1763Y588D02*
X1770Y588D01*
X0Y587D02*
X7Y587D01*
X557Y587D02*
X563Y587D01*
X610Y587D02*
X616Y587D01*
X1556Y587D02*
X1562Y587D01*
X1610Y587D02*
X1616Y587D01*
X1763Y587D02*
X1770Y587D01*
X0Y586D02*
X7Y586D01*
X557Y586D02*
X563Y586D01*
X610Y586D02*
X616Y586D01*
X1556Y586D02*
X1562Y586D01*
X1610Y586D02*
X1616Y586D01*
X1763Y586D02*
X1770Y586D01*
X0Y585D02*
X7Y585D01*
X557Y585D02*
X563Y585D01*
X610Y585D02*
X616Y585D01*
X1556Y585D02*
X1562Y585D01*
X1610Y585D02*
X1616Y585D01*
X1763Y585D02*
X1770Y585D01*
X0Y584D02*
X7Y584D01*
X557Y584D02*
X563Y584D01*
X610Y584D02*
X616Y584D01*
X1556Y584D02*
X1562Y584D01*
X1609Y584D02*
X1616Y584D01*
X1763Y584D02*
X1770Y584D01*
X0Y583D02*
X7Y583D01*
X557Y583D02*
X563Y583D01*
X610Y583D02*
X616Y583D01*
X1556Y583D02*
X1562Y583D01*
X1609Y583D02*
X1615Y583D01*
X1763Y583D02*
X1770Y583D01*
X0Y582D02*
X7Y582D01*
X557Y582D02*
X563Y582D01*
X610Y582D02*
X616Y582D01*
X1556Y582D02*
X1562Y582D01*
X1606Y582D02*
X1615Y582D01*
X1763Y582D02*
X1770Y582D01*
X0Y581D02*
X7Y581D01*
X557Y581D02*
X563Y581D01*
X586Y581D02*
X616Y581D01*
X1556Y581D02*
X1562Y581D01*
X1590Y581D02*
X1615Y581D01*
X1763Y581D02*
X1770Y581D01*
X0Y580D02*
X7Y580D01*
X557Y580D02*
X563Y580D01*
X585Y580D02*
X616Y580D01*
X1556Y580D02*
X1562Y580D01*
X1590Y580D02*
X1614Y580D01*
X1763Y580D02*
X1770Y580D01*
X0Y579D02*
X7Y579D01*
X557Y579D02*
X563Y579D01*
X584Y579D02*
X615Y579D01*
X1556Y579D02*
X1562Y579D01*
X1589Y579D02*
X1613Y579D01*
X1763Y579D02*
X1770Y579D01*
X0Y578D02*
X7Y578D01*
X557Y578D02*
X563Y578D01*
X583Y578D02*
X615Y578D01*
X1556Y578D02*
X1562Y578D01*
X1589Y578D02*
X1613Y578D01*
X1763Y578D02*
X1770Y578D01*
X0Y577D02*
X7Y577D01*
X557Y577D02*
X563Y577D01*
X583Y577D02*
X614Y577D01*
X1556Y577D02*
X1562Y577D01*
X1589Y577D02*
X1614Y577D01*
X1763Y577D02*
X1770Y577D01*
X0Y576D02*
X7Y576D01*
X539Y576D02*
X539Y576D01*
X557Y576D02*
X563Y576D01*
X583Y576D02*
X613Y576D01*
X1539Y576D02*
X1539Y576D01*
X1556Y576D02*
X1562Y576D01*
X1590Y576D02*
X1615Y576D01*
X1763Y576D02*
X1770Y576D01*
X0Y575D02*
X7Y575D01*
X537Y575D02*
X541Y575D01*
X557Y575D02*
X563Y575D01*
X583Y575D02*
X609Y575D01*
X1537Y575D02*
X1541Y575D01*
X1556Y575D02*
X1562Y575D01*
X1593Y575D02*
X1615Y575D01*
X1763Y575D02*
X1770Y575D01*
X0Y574D02*
X7Y574D01*
X536Y574D02*
X542Y574D01*
X557Y574D02*
X563Y574D01*
X583Y574D02*
X589Y574D01*
X1536Y574D02*
X1541Y574D01*
X1556Y574D02*
X1562Y574D01*
X1609Y574D02*
X1615Y574D01*
X1763Y574D02*
X1770Y574D01*
X0Y573D02*
X7Y573D01*
X536Y573D02*
X542Y573D01*
X557Y573D02*
X563Y573D01*
X583Y573D02*
X589Y573D01*
X1536Y573D02*
X1542Y573D01*
X1556Y573D02*
X1562Y573D01*
X1609Y573D02*
X1616Y573D01*
X1763Y573D02*
X1770Y573D01*
X0Y572D02*
X7Y572D01*
X536Y572D02*
X542Y572D01*
X557Y572D02*
X563Y572D01*
X583Y572D02*
X589Y572D01*
X1536Y572D02*
X1542Y572D01*
X1556Y572D02*
X1562Y572D01*
X1610Y572D02*
X1616Y572D01*
X1763Y572D02*
X1770Y572D01*
X0Y571D02*
X7Y571D01*
X536Y571D02*
X542Y571D01*
X557Y571D02*
X563Y571D01*
X583Y571D02*
X589Y571D01*
X1536Y571D02*
X1542Y571D01*
X1556Y571D02*
X1562Y571D01*
X1610Y571D02*
X1616Y571D01*
X1763Y571D02*
X1770Y571D01*
X0Y570D02*
X7Y570D01*
X536Y570D02*
X542Y570D01*
X557Y570D02*
X563Y570D01*
X583Y570D02*
X589Y570D01*
X1536Y570D02*
X1542Y570D01*
X1556Y570D02*
X1562Y570D01*
X1610Y570D02*
X1616Y570D01*
X1763Y570D02*
X1770Y570D01*
X0Y569D02*
X7Y569D01*
X536Y569D02*
X542Y569D01*
X557Y569D02*
X563Y569D01*
X583Y569D02*
X589Y569D01*
X1536Y569D02*
X1542Y569D01*
X1556Y569D02*
X1562Y569D01*
X1610Y569D02*
X1616Y569D01*
X1763Y569D02*
X1770Y569D01*
X0Y568D02*
X7Y568D01*
X536Y568D02*
X542Y568D01*
X557Y568D02*
X563Y568D01*
X583Y568D02*
X589Y568D01*
X1536Y568D02*
X1542Y568D01*
X1556Y568D02*
X1562Y568D01*
X1610Y568D02*
X1616Y568D01*
X1763Y568D02*
X1770Y568D01*
X0Y567D02*
X7Y567D01*
X536Y567D02*
X542Y567D01*
X557Y567D02*
X563Y567D01*
X583Y567D02*
X589Y567D01*
X1536Y567D02*
X1542Y567D01*
X1556Y567D02*
X1562Y567D01*
X1610Y567D02*
X1616Y567D01*
X1763Y567D02*
X1770Y567D01*
X0Y566D02*
X7Y566D01*
X536Y566D02*
X542Y566D01*
X557Y566D02*
X563Y566D01*
X583Y566D02*
X589Y566D01*
X1536Y566D02*
X1542Y566D01*
X1556Y566D02*
X1562Y566D01*
X1610Y566D02*
X1616Y566D01*
X1763Y566D02*
X1770Y566D01*
X0Y565D02*
X7Y565D01*
X536Y565D02*
X542Y565D01*
X557Y565D02*
X563Y565D01*
X583Y565D02*
X589Y565D01*
X1536Y565D02*
X1542Y565D01*
X1556Y565D02*
X1562Y565D01*
X1610Y565D02*
X1616Y565D01*
X1763Y565D02*
X1770Y565D01*
X0Y564D02*
X7Y564D01*
X536Y564D02*
X542Y564D01*
X557Y564D02*
X563Y564D01*
X583Y564D02*
X589Y564D01*
X1536Y564D02*
X1542Y564D01*
X1556Y564D02*
X1562Y564D01*
X1610Y564D02*
X1616Y564D01*
X1763Y564D02*
X1770Y564D01*
X0Y563D02*
X7Y563D01*
X536Y563D02*
X542Y563D01*
X557Y563D02*
X563Y563D01*
X583Y563D02*
X589Y563D01*
X1536Y563D02*
X1542Y563D01*
X1556Y563D02*
X1562Y563D01*
X1610Y563D02*
X1616Y563D01*
X1763Y563D02*
X1770Y563D01*
X0Y562D02*
X7Y562D01*
X536Y562D02*
X542Y562D01*
X557Y562D02*
X563Y562D01*
X583Y562D02*
X589Y562D01*
X1536Y562D02*
X1542Y562D01*
X1556Y562D02*
X1562Y562D01*
X1610Y562D02*
X1616Y562D01*
X1763Y562D02*
X1770Y562D01*
X0Y561D02*
X7Y561D01*
X536Y561D02*
X542Y561D01*
X557Y561D02*
X563Y561D01*
X583Y561D02*
X589Y561D01*
X1536Y561D02*
X1542Y561D01*
X1556Y561D02*
X1562Y561D01*
X1610Y561D02*
X1616Y561D01*
X1763Y561D02*
X1770Y561D01*
X0Y560D02*
X7Y560D01*
X536Y560D02*
X543Y560D01*
X556Y560D02*
X563Y560D01*
X583Y560D02*
X589Y560D01*
X1536Y560D02*
X1542Y560D01*
X1556Y560D02*
X1562Y560D01*
X1610Y560D02*
X1616Y560D01*
X1763Y560D02*
X1770Y560D01*
X0Y559D02*
X7Y559D01*
X536Y559D02*
X544Y559D01*
X555Y559D02*
X562Y559D01*
X583Y559D02*
X589Y559D01*
X1536Y559D02*
X1543Y559D01*
X1555Y559D02*
X1562Y559D01*
X1610Y559D02*
X1616Y559D01*
X1763Y559D02*
X1770Y559D01*
X0Y558D02*
X7Y558D01*
X537Y558D02*
X562Y558D01*
X583Y558D02*
X614Y558D01*
X1536Y558D02*
X1562Y558D01*
X1584Y558D02*
X1616Y558D01*
X1763Y558D02*
X1770Y558D01*
X0Y557D02*
X7Y557D01*
X537Y557D02*
X561Y557D01*
X583Y557D02*
X615Y557D01*
X1537Y557D02*
X1561Y557D01*
X1583Y557D02*
X1616Y557D01*
X1763Y557D02*
X1770Y557D01*
X0Y556D02*
X7Y556D01*
X538Y556D02*
X561Y556D01*
X583Y556D02*
X616Y556D01*
X1538Y556D02*
X1560Y556D01*
X1582Y556D02*
X1615Y556D01*
X1763Y556D02*
X1770Y556D01*
X0Y555D02*
X7Y555D01*
X539Y555D02*
X560Y555D01*
X583Y555D02*
X616Y555D01*
X1538Y555D02*
X1560Y555D01*
X1582Y555D02*
X1615Y555D01*
X1763Y555D02*
X1770Y555D01*
X0Y554D02*
X7Y554D01*
X540Y554D02*
X559Y554D01*
X583Y554D02*
X616Y554D01*
X1539Y554D02*
X1559Y554D01*
X1582Y554D02*
X1614Y554D01*
X1763Y554D02*
X1770Y554D01*
X0Y553D02*
X7Y553D01*
X541Y553D02*
X558Y553D01*
X583Y553D02*
X616Y553D01*
X1541Y553D02*
X1557Y553D01*
X1583Y553D02*
X1613Y553D01*
X1763Y553D02*
X1770Y553D01*
X0Y552D02*
X7Y552D01*
X543Y552D02*
X556Y552D01*
X583Y552D02*
X614Y552D01*
X1543Y552D02*
X1555Y552D01*
X1584Y552D02*
X1612Y552D01*
X1763Y552D02*
X1770Y552D01*
X0Y551D02*
X7Y551D01*
X1763Y551D02*
X1770Y551D01*
X0Y550D02*
X7Y550D01*
X1763Y550D02*
X1770Y550D01*
X0Y549D02*
X7Y549D01*
X1763Y549D02*
X1770Y549D01*
X0Y548D02*
X7Y548D01*
X1763Y548D02*
X1770Y548D01*
X0Y547D02*
X7Y547D01*
X1763Y547D02*
X1770Y547D01*
X0Y546D02*
X7Y546D01*
X1763Y546D02*
X1770Y546D01*
X0Y545D02*
X7Y545D01*
X1763Y545D02*
X1770Y545D01*
X0Y544D02*
X7Y544D01*
X1763Y544D02*
X1770Y544D01*
X0Y543D02*
X7Y543D01*
X1763Y543D02*
X1770Y543D01*
X0Y542D02*
X7Y542D01*
X1763Y542D02*
X1770Y542D01*
X0Y541D02*
X7Y541D01*
X1763Y541D02*
X1770Y541D01*
X0Y540D02*
X7Y540D01*
X1763Y540D02*
X1770Y540D01*
X0Y539D02*
X7Y539D01*
X1763Y539D02*
X1770Y539D01*
X0Y538D02*
X7Y538D01*
X1763Y538D02*
X1770Y538D01*
X0Y537D02*
X7Y537D01*
X1763Y537D02*
X1770Y537D01*
X0Y536D02*
X7Y536D01*
X1763Y536D02*
X1770Y536D01*
X0Y535D02*
X7Y535D01*
X1763Y535D02*
X1770Y535D01*
X0Y534D02*
X7Y534D01*
X1763Y534D02*
X1770Y534D01*
X0Y533D02*
X7Y533D01*
X1763Y533D02*
X1770Y533D01*
X0Y532D02*
X7Y532D01*
X1763Y532D02*
X1770Y532D01*
X0Y531D02*
X7Y531D01*
X1763Y531D02*
X1770Y531D01*
X0Y530D02*
X7Y530D01*
X1763Y530D02*
X1770Y530D01*
X0Y529D02*
X7Y529D01*
X1763Y529D02*
X1770Y529D01*
X0Y528D02*
X7Y528D01*
X1763Y528D02*
X1770Y528D01*
X0Y527D02*
X7Y527D01*
X1763Y527D02*
X1770Y527D01*
X0Y526D02*
X7Y526D01*
X1763Y526D02*
X1770Y526D01*
X0Y525D02*
X7Y525D01*
X1763Y525D02*
X1770Y525D01*
X0Y524D02*
X7Y524D01*
X1763Y524D02*
X1770Y524D01*
X0Y523D02*
X7Y523D01*
X1763Y523D02*
X1770Y523D01*
X0Y522D02*
X7Y522D01*
X1763Y522D02*
X1770Y522D01*
X0Y521D02*
X7Y521D01*
X1763Y521D02*
X1770Y521D01*
X0Y520D02*
X7Y520D01*
X1763Y520D02*
X1770Y520D01*
X0Y519D02*
X7Y519D01*
X1763Y519D02*
X1770Y519D01*
X0Y518D02*
X7Y518D01*
X1763Y518D02*
X1770Y518D01*
X0Y517D02*
X7Y517D01*
X1763Y517D02*
X1770Y517D01*
X0Y516D02*
X7Y516D01*
X1763Y516D02*
X1770Y516D01*
X0Y515D02*
X7Y515D01*
X1763Y515D02*
X1770Y515D01*
X0Y514D02*
X7Y514D01*
X1763Y514D02*
X1770Y514D01*
X0Y513D02*
X7Y513D01*
X1763Y513D02*
X1770Y513D01*
X0Y512D02*
X7Y512D01*
X1763Y512D02*
X1770Y512D01*
X0Y511D02*
X7Y511D01*
X1763Y511D02*
X1770Y511D01*
X0Y510D02*
X7Y510D01*
X1763Y510D02*
X1770Y510D01*
X0Y509D02*
X7Y509D01*
X1763Y509D02*
X1770Y509D01*
X0Y508D02*
X7Y508D01*
X1763Y508D02*
X1770Y508D01*
X0Y507D02*
X7Y507D01*
X438Y507D02*
X438Y507D01*
X1437Y507D02*
X1437Y507D01*
X1763Y507D02*
X1770Y507D01*
X0Y506D02*
X7Y506D01*
X437Y506D02*
X439Y506D01*
X1436Y506D02*
X1438Y506D01*
X1763Y506D02*
X1770Y506D01*
X0Y505D02*
X7Y505D01*
X436Y505D02*
X440Y505D01*
X1435Y505D02*
X1439Y505D01*
X1763Y505D02*
X1770Y505D01*
X0Y504D02*
X7Y504D01*
X435Y504D02*
X440Y504D01*
X1434Y504D02*
X1440Y504D01*
X1763Y504D02*
X1770Y504D01*
X0Y503D02*
X7Y503D01*
X434Y503D02*
X440Y503D01*
X1433Y503D02*
X1439Y503D01*
X1763Y503D02*
X1770Y503D01*
X0Y502D02*
X7Y502D01*
X433Y502D02*
X439Y502D01*
X1432Y502D02*
X1438Y502D01*
X1763Y502D02*
X1770Y502D01*
X0Y501D02*
X7Y501D01*
X432Y501D02*
X438Y501D01*
X1431Y501D02*
X1437Y501D01*
X1763Y501D02*
X1770Y501D01*
X0Y500D02*
X7Y500D01*
X431Y500D02*
X437Y500D01*
X1430Y500D02*
X1436Y500D01*
X1763Y500D02*
X1770Y500D01*
X0Y499D02*
X7Y499D01*
X430Y499D02*
X436Y499D01*
X1429Y499D02*
X1435Y499D01*
X1763Y499D02*
X1770Y499D01*
X0Y498D02*
X7Y498D01*
X429Y498D02*
X435Y498D01*
X1428Y498D02*
X1434Y498D01*
X1763Y498D02*
X1770Y498D01*
X0Y497D02*
X7Y497D01*
X428Y497D02*
X434Y497D01*
X1427Y497D02*
X1433Y497D01*
X1763Y497D02*
X1770Y497D01*
X0Y496D02*
X7Y496D01*
X427Y496D02*
X433Y496D01*
X1426Y496D02*
X1432Y496D01*
X1763Y496D02*
X1770Y496D01*
X0Y495D02*
X7Y495D01*
X426Y495D02*
X432Y495D01*
X1425Y495D02*
X1431Y495D01*
X1763Y495D02*
X1770Y495D01*
X0Y494D02*
X7Y494D01*
X425Y494D02*
X431Y494D01*
X1424Y494D02*
X1430Y494D01*
X1763Y494D02*
X1770Y494D01*
X0Y493D02*
X7Y493D01*
X424Y493D02*
X430Y493D01*
X1423Y493D02*
X1429Y493D01*
X1763Y493D02*
X1770Y493D01*
X0Y492D02*
X7Y492D01*
X423Y492D02*
X429Y492D01*
X1422Y492D02*
X1428Y492D01*
X1763Y492D02*
X1770Y492D01*
X0Y491D02*
X7Y491D01*
X422Y491D02*
X428Y491D01*
X1421Y491D02*
X1427Y491D01*
X1763Y491D02*
X1770Y491D01*
X0Y490D02*
X7Y490D01*
X421Y490D02*
X426Y490D01*
X1420Y490D02*
X1426Y490D01*
X1763Y490D02*
X1770Y490D01*
X0Y489D02*
X7Y489D01*
X420Y489D02*
X425Y489D01*
X1419Y489D02*
X1425Y489D01*
X1763Y489D02*
X1770Y489D01*
X0Y488D02*
X7Y488D01*
X419Y488D02*
X424Y488D01*
X1418Y488D02*
X1424Y488D01*
X1763Y488D02*
X1770Y488D01*
X0Y487D02*
X7Y487D01*
X418Y487D02*
X423Y487D01*
X1417Y487D02*
X1422Y487D01*
X1763Y487D02*
X1770Y487D01*
X0Y486D02*
X7Y486D01*
X417Y486D02*
X422Y486D01*
X1416Y486D02*
X1422Y486D01*
X1763Y486D02*
X1770Y486D01*
X0Y485D02*
X7Y485D01*
X416Y485D02*
X421Y485D01*
X1415Y485D02*
X1421Y485D01*
X1763Y485D02*
X1770Y485D01*
X0Y484D02*
X7Y484D01*
X415Y484D02*
X420Y484D01*
X1414Y484D02*
X1420Y484D01*
X1763Y484D02*
X1770Y484D01*
X0Y483D02*
X7Y483D01*
X414Y483D02*
X419Y483D01*
X1413Y483D02*
X1419Y483D01*
X1763Y483D02*
X1770Y483D01*
X0Y482D02*
X7Y482D01*
X413Y482D02*
X419Y482D01*
X1412Y482D02*
X1418Y482D01*
X1763Y482D02*
X1770Y482D01*
X0Y481D02*
X7Y481D01*
X412Y481D02*
X418Y481D01*
X1411Y481D02*
X1417Y481D01*
X1763Y481D02*
X1770Y481D01*
X0Y480D02*
X7Y480D01*
X411Y480D02*
X417Y480D01*
X1410Y480D02*
X1416Y480D01*
X1763Y480D02*
X1770Y480D01*
X0Y479D02*
X7Y479D01*
X410Y479D02*
X416Y479D01*
X1409Y479D02*
X1415Y479D01*
X1763Y479D02*
X1770Y479D01*
X0Y478D02*
X7Y478D01*
X409Y478D02*
X415Y478D01*
X1408Y478D02*
X1414Y478D01*
X1763Y478D02*
X1770Y478D01*
X0Y477D02*
X7Y477D01*
X408Y477D02*
X414Y477D01*
X1407Y477D02*
X1413Y477D01*
X1763Y477D02*
X1770Y477D01*
X0Y476D02*
X7Y476D01*
X407Y476D02*
X413Y476D01*
X1406Y476D02*
X1412Y476D01*
X1763Y476D02*
X1770Y476D01*
X0Y475D02*
X7Y475D01*
X406Y475D02*
X412Y475D01*
X1405Y475D02*
X1411Y475D01*
X1763Y475D02*
X1770Y475D01*
X0Y474D02*
X7Y474D01*
X405Y474D02*
X411Y474D01*
X1404Y474D02*
X1410Y474D01*
X1763Y474D02*
X1770Y474D01*
X0Y473D02*
X7Y473D01*
X404Y473D02*
X410Y473D01*
X1403Y473D02*
X1409Y473D01*
X1763Y473D02*
X1770Y473D01*
X0Y472D02*
X7Y472D01*
X404Y472D02*
X409Y472D01*
X1403Y472D02*
X1408Y472D01*
X1763Y472D02*
X1770Y472D01*
X0Y471D02*
X7Y471D01*
X405Y471D02*
X408Y471D01*
X1404Y471D02*
X1407Y471D01*
X1763Y471D02*
X1770Y471D01*
X0Y470D02*
X7Y470D01*
X406Y470D02*
X407Y470D01*
X1405Y470D02*
X1406Y470D01*
X1763Y470D02*
X1770Y470D01*
X0Y469D02*
X7Y469D01*
X1763Y469D02*
X1770Y469D01*
X0Y468D02*
X7Y468D01*
X1763Y468D02*
X1770Y468D01*
X0Y467D02*
X7Y467D01*
X1763Y467D02*
X1770Y467D01*
X0Y466D02*
X7Y466D01*
X1763Y466D02*
X1770Y466D01*
X0Y465D02*
X7Y465D01*
X1763Y465D02*
X1770Y465D01*
X0Y464D02*
X7Y464D01*
X1763Y464D02*
X1770Y464D01*
X0Y463D02*
X7Y463D01*
X1763Y463D02*
X1770Y463D01*
X0Y462D02*
X7Y462D01*
X1763Y462D02*
X1770Y462D01*
X0Y461D02*
X7Y461D01*
X1763Y461D02*
X1770Y461D01*
X0Y460D02*
X7Y460D01*
X1763Y460D02*
X1770Y460D01*
X0Y459D02*
X7Y459D01*
X1763Y459D02*
X1770Y459D01*
X0Y458D02*
X7Y458D01*
X1763Y458D02*
X1770Y458D01*
X0Y457D02*
X7Y457D01*
X1763Y457D02*
X1770Y457D01*
X0Y456D02*
X7Y456D01*
X1763Y456D02*
X1770Y456D01*
X0Y455D02*
X7Y455D01*
X1763Y455D02*
X1770Y455D01*
X0Y454D02*
X7Y454D01*
X1763Y454D02*
X1770Y454D01*
X0Y453D02*
X7Y453D01*
X1763Y453D02*
X1770Y453D01*
X0Y452D02*
X7Y452D01*
X1763Y452D02*
X1770Y452D01*
X0Y451D02*
X7Y451D01*
X1763Y451D02*
X1770Y451D01*
X0Y450D02*
X7Y450D01*
X1763Y450D02*
X1770Y450D01*
X0Y449D02*
X7Y449D01*
X1763Y449D02*
X1770Y449D01*
X0Y448D02*
X7Y448D01*
X1763Y448D02*
X1770Y448D01*
X0Y447D02*
X7Y447D01*
X1763Y447D02*
X1770Y447D01*
X0Y446D02*
X7Y446D01*
X1763Y446D02*
X1770Y446D01*
X0Y445D02*
X7Y445D01*
X1763Y445D02*
X1770Y445D01*
X0Y444D02*
X7Y444D01*
X1763Y444D02*
X1770Y444D01*
X0Y443D02*
X7Y443D01*
X1763Y443D02*
X1770Y443D01*
X0Y442D02*
X7Y442D01*
X1763Y442D02*
X1770Y442D01*
X0Y441D02*
X7Y441D01*
X1763Y441D02*
X1770Y441D01*
X0Y440D02*
X7Y440D01*
X1763Y440D02*
X1770Y440D01*
X0Y439D02*
X7Y439D01*
X1763Y439D02*
X1770Y439D01*
X0Y438D02*
X7Y438D01*
X1763Y438D02*
X1770Y438D01*
X0Y437D02*
X7Y437D01*
X1763Y437D02*
X1770Y437D01*
X0Y436D02*
X7Y436D01*
X1763Y436D02*
X1770Y436D01*
X0Y435D02*
X7Y435D01*
X1763Y435D02*
X1770Y435D01*
X0Y434D02*
X7Y434D01*
X1763Y434D02*
X1770Y434D01*
X0Y433D02*
X7Y433D01*
X1763Y433D02*
X1770Y433D01*
X0Y432D02*
X7Y432D01*
X1763Y432D02*
X1770Y432D01*
X0Y431D02*
X7Y431D01*
X1763Y431D02*
X1770Y431D01*
X0Y430D02*
X7Y430D01*
X1763Y430D02*
X1770Y430D01*
X0Y429D02*
X7Y429D01*
X1763Y429D02*
X1770Y429D01*
X0Y428D02*
X7Y428D01*
X1763Y428D02*
X1770Y428D01*
X0Y427D02*
X7Y427D01*
X1763Y427D02*
X1770Y427D01*
X0Y426D02*
X7Y426D01*
X1763Y426D02*
X1770Y426D01*
X0Y425D02*
X7Y425D01*
X1763Y425D02*
X1770Y425D01*
X0Y424D02*
X7Y424D01*
X1763Y424D02*
X1770Y424D01*
X0Y423D02*
X7Y423D01*
X1763Y423D02*
X1770Y423D01*
X0Y422D02*
X7Y422D01*
X1763Y422D02*
X1770Y422D01*
X0Y421D02*
X7Y421D01*
X1763Y421D02*
X1770Y421D01*
X0Y420D02*
X7Y420D01*
X1763Y420D02*
X1770Y420D01*
X0Y419D02*
X7Y419D01*
X1763Y419D02*
X1770Y419D01*
X0Y418D02*
X7Y418D01*
X1763Y418D02*
X1770Y418D01*
X0Y417D02*
X7Y417D01*
X1763Y417D02*
X1770Y417D01*
X0Y416D02*
X7Y416D01*
X1763Y416D02*
X1770Y416D01*
X0Y415D02*
X7Y415D01*
X1763Y415D02*
X1770Y415D01*
X0Y414D02*
X7Y414D01*
X1763Y414D02*
X1770Y414D01*
X0Y413D02*
X7Y413D01*
X1763Y413D02*
X1770Y413D01*
X0Y412D02*
X7Y412D01*
X1763Y412D02*
X1770Y412D01*
X0Y411D02*
X7Y411D01*
X1763Y411D02*
X1770Y411D01*
X0Y410D02*
X7Y410D01*
X1763Y410D02*
X1770Y410D01*
X0Y409D02*
X7Y409D01*
X1763Y409D02*
X1770Y409D01*
X0Y408D02*
X7Y408D01*
X1763Y408D02*
X1770Y408D01*
X0Y407D02*
X7Y407D01*
X1763Y407D02*
X1770Y407D01*
X0Y406D02*
X7Y406D01*
X1763Y406D02*
X1770Y406D01*
X0Y405D02*
X7Y405D01*
X258Y405D02*
X261Y405D01*
X284Y405D02*
X302Y405D01*
X1763Y405D02*
X1770Y405D01*
X0Y404D02*
X7Y404D01*
X257Y404D02*
X262Y404D01*
X283Y404D02*
X302Y404D01*
X1763Y404D02*
X1770Y404D01*
X0Y403D02*
X7Y403D01*
X257Y403D02*
X263Y403D01*
X283Y403D02*
X302Y403D01*
X1763Y403D02*
X1770Y403D01*
X0Y402D02*
X7Y402D01*
X257Y402D02*
X263Y402D01*
X283Y402D02*
X302Y402D01*
X1763Y402D02*
X1770Y402D01*
X0Y401D02*
X7Y401D01*
X257Y401D02*
X263Y401D01*
X283Y401D02*
X302Y401D01*
X1763Y401D02*
X1770Y401D01*
X0Y400D02*
X7Y400D01*
X257Y400D02*
X263Y400D01*
X284Y400D02*
X302Y400D01*
X1763Y400D02*
X1770Y400D01*
X0Y399D02*
X7Y399D01*
X257Y399D02*
X263Y399D01*
X285Y399D02*
X302Y399D01*
X1763Y399D02*
X1770Y399D01*
X0Y398D02*
X7Y398D01*
X257Y398D02*
X263Y398D01*
X296Y398D02*
X302Y398D01*
X1763Y398D02*
X1770Y398D01*
X0Y397D02*
X7Y397D01*
X257Y397D02*
X263Y397D01*
X296Y397D02*
X302Y397D01*
X1763Y397D02*
X1770Y397D01*
X0Y396D02*
X7Y396D01*
X257Y396D02*
X263Y396D01*
X296Y396D02*
X302Y396D01*
X1763Y396D02*
X1770Y396D01*
X0Y395D02*
X7Y395D01*
X257Y395D02*
X263Y395D01*
X296Y395D02*
X302Y395D01*
X1763Y395D02*
X1770Y395D01*
X0Y394D02*
X7Y394D01*
X257Y394D02*
X263Y394D01*
X296Y394D02*
X302Y394D01*
X1763Y394D02*
X1770Y394D01*
X0Y393D02*
X7Y393D01*
X257Y393D02*
X263Y393D01*
X296Y393D02*
X302Y393D01*
X1763Y393D02*
X1770Y393D01*
X0Y392D02*
X7Y392D01*
X257Y392D02*
X263Y392D01*
X296Y392D02*
X302Y392D01*
X1763Y392D02*
X1770Y392D01*
X0Y391D02*
X7Y391D01*
X257Y391D02*
X263Y391D01*
X296Y391D02*
X302Y391D01*
X1763Y391D02*
X1770Y391D01*
X0Y390D02*
X7Y390D01*
X257Y390D02*
X263Y390D01*
X296Y390D02*
X302Y390D01*
X1763Y390D02*
X1770Y390D01*
X0Y389D02*
X7Y389D01*
X257Y389D02*
X263Y389D01*
X296Y389D02*
X302Y389D01*
X1763Y389D02*
X1770Y389D01*
X0Y388D02*
X7Y388D01*
X257Y388D02*
X263Y388D01*
X296Y388D02*
X302Y388D01*
X1763Y388D02*
X1770Y388D01*
X0Y387D02*
X7Y387D01*
X257Y387D02*
X263Y387D01*
X296Y387D02*
X302Y387D01*
X1763Y387D02*
X1770Y387D01*
X0Y386D02*
X7Y386D01*
X257Y386D02*
X263Y386D01*
X296Y386D02*
X302Y386D01*
X1763Y386D02*
X1770Y386D01*
X0Y385D02*
X7Y385D01*
X257Y385D02*
X263Y385D01*
X296Y385D02*
X302Y385D01*
X1763Y385D02*
X1770Y385D01*
X0Y384D02*
X7Y384D01*
X257Y384D02*
X263Y384D01*
X296Y384D02*
X302Y384D01*
X1763Y384D02*
X1770Y384D01*
X0Y383D02*
X7Y383D01*
X257Y383D02*
X263Y383D01*
X296Y383D02*
X302Y383D01*
X1763Y383D02*
X1770Y383D01*
X0Y382D02*
X7Y382D01*
X257Y382D02*
X263Y382D01*
X296Y382D02*
X302Y382D01*
X1763Y382D02*
X1770Y382D01*
X0Y381D02*
X7Y381D01*
X257Y381D02*
X263Y381D01*
X296Y381D02*
X302Y381D01*
X1763Y381D02*
X1770Y381D01*
X0Y380D02*
X7Y380D01*
X257Y380D02*
X263Y380D01*
X296Y380D02*
X302Y380D01*
X1763Y380D02*
X1770Y380D01*
X0Y379D02*
X7Y379D01*
X257Y379D02*
X263Y379D01*
X296Y379D02*
X302Y379D01*
X1763Y379D02*
X1770Y379D01*
X0Y378D02*
X7Y378D01*
X257Y378D02*
X263Y378D01*
X296Y378D02*
X302Y378D01*
X1763Y378D02*
X1770Y378D01*
X0Y377D02*
X7Y377D01*
X257Y377D02*
X263Y377D01*
X296Y377D02*
X302Y377D01*
X1763Y377D02*
X1770Y377D01*
X0Y376D02*
X7Y376D01*
X238Y376D02*
X240Y376D01*
X257Y376D02*
X263Y376D01*
X296Y376D02*
X302Y376D01*
X312Y376D02*
X314Y376D01*
X1763Y376D02*
X1770Y376D01*
X0Y375D02*
X7Y375D01*
X237Y375D02*
X241Y375D01*
X257Y375D02*
X263Y375D01*
X296Y375D02*
X302Y375D01*
X311Y375D02*
X315Y375D01*
X1763Y375D02*
X1770Y375D01*
X0Y374D02*
X7Y374D01*
X236Y374D02*
X242Y374D01*
X257Y374D02*
X263Y374D01*
X296Y374D02*
X302Y374D01*
X310Y374D02*
X316Y374D01*
X1763Y374D02*
X1770Y374D01*
X0Y373D02*
X7Y373D01*
X236Y373D02*
X242Y373D01*
X257Y373D02*
X263Y373D01*
X296Y373D02*
X302Y373D01*
X310Y373D02*
X316Y373D01*
X1763Y373D02*
X1770Y373D01*
X0Y372D02*
X7Y372D01*
X236Y372D02*
X242Y372D01*
X257Y372D02*
X263Y372D01*
X296Y372D02*
X302Y372D01*
X310Y372D02*
X316Y372D01*
X1763Y372D02*
X1770Y372D01*
X0Y371D02*
X7Y371D01*
X236Y371D02*
X242Y371D01*
X257Y371D02*
X263Y371D01*
X296Y371D02*
X302Y371D01*
X310Y371D02*
X316Y371D01*
X1763Y371D02*
X1770Y371D01*
X0Y370D02*
X7Y370D01*
X236Y370D02*
X242Y370D01*
X257Y370D02*
X263Y370D01*
X296Y370D02*
X302Y370D01*
X310Y370D02*
X316Y370D01*
X1763Y370D02*
X1770Y370D01*
X0Y369D02*
X7Y369D01*
X236Y369D02*
X242Y369D01*
X257Y369D02*
X263Y369D01*
X296Y369D02*
X302Y369D01*
X310Y369D02*
X316Y369D01*
X1763Y369D02*
X1770Y369D01*
X0Y368D02*
X7Y368D01*
X236Y368D02*
X242Y368D01*
X257Y368D02*
X263Y368D01*
X296Y368D02*
X302Y368D01*
X310Y368D02*
X316Y368D01*
X1763Y368D02*
X1770Y368D01*
X0Y367D02*
X7Y367D01*
X236Y367D02*
X242Y367D01*
X257Y367D02*
X263Y367D01*
X296Y367D02*
X302Y367D01*
X310Y367D02*
X316Y367D01*
X1763Y367D02*
X1770Y367D01*
X0Y366D02*
X7Y366D01*
X236Y366D02*
X242Y366D01*
X257Y366D02*
X263Y366D01*
X296Y366D02*
X302Y366D01*
X310Y366D02*
X316Y366D01*
X1763Y366D02*
X1770Y366D01*
X0Y365D02*
X7Y365D01*
X236Y365D02*
X242Y365D01*
X257Y365D02*
X263Y365D01*
X296Y365D02*
X302Y365D01*
X310Y365D02*
X316Y365D01*
X1763Y365D02*
X1770Y365D01*
X0Y364D02*
X7Y364D01*
X236Y364D02*
X242Y364D01*
X257Y364D02*
X263Y364D01*
X296Y364D02*
X302Y364D01*
X310Y364D02*
X316Y364D01*
X1763Y364D02*
X1770Y364D01*
X0Y363D02*
X7Y363D01*
X236Y363D02*
X242Y363D01*
X257Y363D02*
X263Y363D01*
X296Y363D02*
X302Y363D01*
X310Y363D02*
X316Y363D01*
X1763Y363D02*
X1770Y363D01*
X0Y362D02*
X7Y362D01*
X236Y362D02*
X242Y362D01*
X257Y362D02*
X263Y362D01*
X296Y362D02*
X302Y362D01*
X310Y362D02*
X316Y362D01*
X1763Y362D02*
X1770Y362D01*
X0Y361D02*
X7Y361D01*
X236Y361D02*
X242Y361D01*
X256Y361D02*
X263Y361D01*
X296Y361D02*
X302Y361D01*
X310Y361D02*
X316Y361D01*
X1763Y361D02*
X1770Y361D01*
X0Y360D02*
X7Y360D01*
X236Y360D02*
X243Y360D01*
X256Y360D02*
X262Y360D01*
X296Y360D02*
X302Y360D01*
X310Y360D02*
X316Y360D01*
X1763Y360D02*
X1770Y360D01*
X0Y359D02*
X7Y359D01*
X236Y359D02*
X244Y359D01*
X254Y359D02*
X262Y359D01*
X296Y359D02*
X302Y359D01*
X310Y359D02*
X316Y359D01*
X1763Y359D02*
X1770Y359D01*
X0Y358D02*
X7Y358D01*
X237Y358D02*
X262Y358D01*
X284Y358D02*
X316Y358D01*
X1763Y358D02*
X1770Y358D01*
X0Y357D02*
X7Y357D01*
X237Y357D02*
X261Y357D01*
X283Y357D02*
X316Y357D01*
X1763Y357D02*
X1770Y357D01*
X0Y356D02*
X7Y356D01*
X238Y356D02*
X260Y356D01*
X283Y356D02*
X316Y356D01*
X1763Y356D02*
X1770Y356D01*
X0Y355D02*
X7Y355D01*
X239Y355D02*
X260Y355D01*
X283Y355D02*
X316Y355D01*
X1763Y355D02*
X1770Y355D01*
X0Y354D02*
X7Y354D01*
X240Y354D02*
X258Y354D01*
X283Y354D02*
X316Y354D01*
X1763Y354D02*
X1770Y354D01*
X0Y353D02*
X7Y353D01*
X242Y353D02*
X257Y353D01*
X283Y353D02*
X315Y353D01*
X1763Y353D02*
X1770Y353D01*
X0Y352D02*
X7Y352D01*
X244Y352D02*
X254Y352D01*
X285Y352D02*
X314Y352D01*
X1763Y352D02*
X1770Y352D01*
X0Y351D02*
X7Y351D01*
X1763Y351D02*
X1770Y351D01*
X0Y350D02*
X7Y350D01*
X1763Y350D02*
X1770Y350D01*
X0Y349D02*
X7Y349D01*
X1763Y349D02*
X1770Y349D01*
X0Y348D02*
X7Y348D01*
X1763Y348D02*
X1770Y348D01*
X0Y347D02*
X7Y347D01*
X1763Y347D02*
X1770Y347D01*
X0Y346D02*
X7Y346D01*
X1763Y346D02*
X1770Y346D01*
X0Y345D02*
X7Y345D01*
X1763Y345D02*
X1770Y345D01*
X0Y344D02*
X7Y344D01*
X1763Y344D02*
X1770Y344D01*
X0Y343D02*
X7Y343D01*
X1763Y343D02*
X1770Y343D01*
X0Y342D02*
X7Y342D01*
X1763Y342D02*
X1770Y342D01*
X0Y341D02*
X7Y341D01*
X1763Y341D02*
X1770Y341D01*
X0Y340D02*
X7Y340D01*
X1763Y340D02*
X1770Y340D01*
X0Y339D02*
X7Y339D01*
X1763Y339D02*
X1770Y339D01*
X0Y338D02*
X7Y338D01*
X1763Y338D02*
X1770Y338D01*
X0Y337D02*
X7Y337D01*
X1763Y337D02*
X1770Y337D01*
X0Y336D02*
X7Y336D01*
X1763Y336D02*
X1770Y336D01*
X0Y335D02*
X7Y335D01*
X1763Y335D02*
X1770Y335D01*
X0Y334D02*
X7Y334D01*
X1763Y334D02*
X1770Y334D01*
X0Y333D02*
X7Y333D01*
X1763Y333D02*
X1770Y333D01*
X0Y332D02*
X7Y332D01*
X1763Y332D02*
X1770Y332D01*
X0Y331D02*
X7Y331D01*
X1763Y331D02*
X1770Y331D01*
X0Y330D02*
X7Y330D01*
X1763Y330D02*
X1770Y330D01*
X0Y329D02*
X7Y329D01*
X1763Y329D02*
X1770Y329D01*
X0Y328D02*
X7Y328D01*
X1763Y328D02*
X1770Y328D01*
X0Y327D02*
X7Y327D01*
X1763Y327D02*
X1770Y327D01*
X0Y326D02*
X7Y326D01*
X1763Y326D02*
X1770Y326D01*
X0Y325D02*
X7Y325D01*
X1763Y325D02*
X1770Y325D01*
X0Y324D02*
X7Y324D01*
X1763Y324D02*
X1770Y324D01*
X0Y323D02*
X7Y323D01*
X1763Y323D02*
X1770Y323D01*
X0Y322D02*
X7Y322D01*
X1763Y322D02*
X1770Y322D01*
X0Y321D02*
X7Y321D01*
X1763Y321D02*
X1770Y321D01*
X0Y320D02*
X7Y320D01*
X1763Y320D02*
X1770Y320D01*
X0Y319D02*
X7Y319D01*
X1763Y319D02*
X1770Y319D01*
X0Y318D02*
X7Y318D01*
X1763Y318D02*
X1770Y318D01*
X0Y317D02*
X7Y317D01*
X1763Y317D02*
X1770Y317D01*
X0Y316D02*
X7Y316D01*
X1763Y316D02*
X1770Y316D01*
X0Y315D02*
X7Y315D01*
X1763Y315D02*
X1770Y315D01*
X0Y314D02*
X7Y314D01*
X1763Y314D02*
X1770Y314D01*
X0Y313D02*
X7Y313D01*
X1763Y313D02*
X1770Y313D01*
X0Y312D02*
X7Y312D01*
X1763Y312D02*
X1770Y312D01*
X0Y311D02*
X7Y311D01*
X1763Y311D02*
X1770Y311D01*
X0Y310D02*
X7Y310D01*
X1763Y310D02*
X1770Y310D01*
X0Y309D02*
X7Y309D01*
X1763Y309D02*
X1770Y309D01*
X0Y308D02*
X7Y308D01*
X1763Y308D02*
X1770Y308D01*
X0Y307D02*
X7Y307D01*
X137Y307D02*
X138Y307D01*
X1763Y307D02*
X1770Y307D01*
X0Y306D02*
X7Y306D01*
X136Y306D02*
X139Y306D01*
X1763Y306D02*
X1770Y306D01*
X0Y305D02*
X7Y305D01*
X135Y305D02*
X140Y305D01*
X1763Y305D02*
X1770Y305D01*
X0Y304D02*
X7Y304D01*
X134Y304D02*
X140Y304D01*
X1763Y304D02*
X1770Y304D01*
X0Y303D02*
X7Y303D01*
X133Y303D02*
X139Y303D01*
X1763Y303D02*
X1770Y303D01*
X0Y302D02*
X7Y302D01*
X132Y302D02*
X138Y302D01*
X1763Y302D02*
X1770Y302D01*
X0Y301D02*
X7Y301D01*
X131Y301D02*
X137Y301D01*
X1763Y301D02*
X1770Y301D01*
X0Y300D02*
X7Y300D01*
X130Y300D02*
X136Y300D01*
X1763Y300D02*
X1770Y300D01*
X0Y299D02*
X7Y299D01*
X129Y299D02*
X135Y299D01*
X1763Y299D02*
X1770Y299D01*
X0Y298D02*
X7Y298D01*
X128Y298D02*
X134Y298D01*
X1763Y298D02*
X1770Y298D01*
X0Y297D02*
X7Y297D01*
X127Y297D02*
X133Y297D01*
X1763Y297D02*
X1770Y297D01*
X0Y296D02*
X7Y296D01*
X126Y296D02*
X132Y296D01*
X1763Y296D02*
X1770Y296D01*
X0Y295D02*
X7Y295D01*
X125Y295D02*
X131Y295D01*
X1763Y295D02*
X1770Y295D01*
X0Y294D02*
X7Y294D01*
X124Y294D02*
X130Y294D01*
X1763Y294D02*
X1770Y294D01*
X0Y293D02*
X7Y293D01*
X123Y293D02*
X129Y293D01*
X1763Y293D02*
X1770Y293D01*
X0Y292D02*
X7Y292D01*
X122Y292D02*
X128Y292D01*
X1763Y292D02*
X1770Y292D01*
X0Y291D02*
X7Y291D01*
X121Y291D02*
X127Y291D01*
X1763Y291D02*
X1770Y291D01*
X0Y290D02*
X7Y290D01*
X120Y290D02*
X126Y290D01*
X1763Y290D02*
X1770Y290D01*
X0Y289D02*
X7Y289D01*
X119Y289D02*
X125Y289D01*
X1763Y289D02*
X1770Y289D01*
X0Y288D02*
X7Y288D01*
X118Y288D02*
X123Y288D01*
X1763Y288D02*
X1770Y288D01*
X0Y287D02*
X7Y287D01*
X117Y287D02*
X122Y287D01*
X1763Y287D02*
X1770Y287D01*
X0Y286D02*
X7Y286D01*
X116Y286D02*
X121Y286D01*
X1763Y286D02*
X1770Y286D01*
X0Y285D02*
X7Y285D01*
X115Y285D02*
X121Y285D01*
X1763Y285D02*
X1770Y285D01*
X0Y284D02*
X7Y284D01*
X114Y284D02*
X120Y284D01*
X1763Y284D02*
X1770Y284D01*
X0Y283D02*
X7Y283D01*
X113Y283D02*
X119Y283D01*
X1763Y283D02*
X1770Y283D01*
X0Y282D02*
X7Y282D01*
X112Y282D02*
X118Y282D01*
X1763Y282D02*
X1770Y282D01*
X0Y281D02*
X7Y281D01*
X111Y281D02*
X117Y281D01*
X1763Y281D02*
X1770Y281D01*
X0Y280D02*
X7Y280D01*
X110Y280D02*
X116Y280D01*
X1763Y280D02*
X1770Y280D01*
X0Y279D02*
X7Y279D01*
X109Y279D02*
X115Y279D01*
X1763Y279D02*
X1770Y279D01*
X0Y278D02*
X7Y278D01*
X108Y278D02*
X114Y278D01*
X1763Y278D02*
X1770Y278D01*
X0Y277D02*
X7Y277D01*
X107Y277D02*
X113Y277D01*
X1763Y277D02*
X1770Y277D01*
X0Y276D02*
X7Y276D01*
X106Y276D02*
X112Y276D01*
X1763Y276D02*
X1770Y276D01*
X0Y275D02*
X7Y275D01*
X105Y275D02*
X111Y275D01*
X1763Y275D02*
X1770Y275D01*
X0Y274D02*
X7Y274D01*
X104Y274D02*
X110Y274D01*
X1763Y274D02*
X1770Y274D01*
X0Y273D02*
X7Y273D01*
X103Y273D02*
X109Y273D01*
X1763Y273D02*
X1770Y273D01*
X0Y272D02*
X7Y272D01*
X104Y272D02*
X108Y272D01*
X1763Y272D02*
X1770Y272D01*
X0Y271D02*
X7Y271D01*
X105Y271D02*
X107Y271D01*
X1763Y271D02*
X1770Y271D01*
X0Y270D02*
X7Y270D01*
X106Y270D02*
X106Y270D01*
X1763Y270D02*
X1770Y270D01*
X0Y269D02*
X7Y269D01*
X1763Y269D02*
X1770Y269D01*
X0Y268D02*
X7Y268D01*
X1763Y268D02*
X1770Y268D01*
X0Y267D02*
X7Y267D01*
X1763Y267D02*
X1770Y267D01*
X0Y266D02*
X7Y266D01*
X1763Y266D02*
X1770Y266D01*
X0Y265D02*
X7Y265D01*
X1763Y265D02*
X1770Y265D01*
X0Y264D02*
X7Y264D01*
X1763Y264D02*
X1770Y264D01*
X0Y263D02*
X7Y263D01*
X1763Y263D02*
X1770Y263D01*
X0Y262D02*
X7Y262D01*
X1763Y262D02*
X1770Y262D01*
X0Y261D02*
X7Y261D01*
X1763Y261D02*
X1770Y261D01*
X0Y260D02*
X7Y260D01*
X1763Y260D02*
X1770Y260D01*
X0Y259D02*
X7Y259D01*
X1763Y259D02*
X1770Y259D01*
X0Y258D02*
X7Y258D01*
X1763Y258D02*
X1770Y258D01*
X0Y257D02*
X7Y257D01*
X1763Y257D02*
X1770Y257D01*
X0Y256D02*
X7Y256D01*
X1763Y256D02*
X1770Y256D01*
X0Y255D02*
X7Y255D01*
X1763Y255D02*
X1770Y255D01*
X0Y254D02*
X7Y254D01*
X1763Y254D02*
X1770Y254D01*
X0Y253D02*
X7Y253D01*
X1763Y253D02*
X1770Y253D01*
X0Y252D02*
X7Y252D01*
X1763Y252D02*
X1770Y252D01*
X0Y251D02*
X7Y251D01*
X1763Y251D02*
X1770Y251D01*
X0Y250D02*
X7Y250D01*
X1763Y250D02*
X1770Y250D01*
X0Y249D02*
X7Y249D01*
X1763Y249D02*
X1770Y249D01*
X0Y248D02*
X7Y248D01*
X1763Y248D02*
X1770Y248D01*
X0Y247D02*
X7Y247D01*
X1763Y247D02*
X1770Y247D01*
X0Y246D02*
X7Y246D01*
X1763Y246D02*
X1770Y246D01*
X0Y245D02*
X7Y245D01*
X1763Y245D02*
X1770Y245D01*
X0Y244D02*
X7Y244D01*
X1763Y244D02*
X1770Y244D01*
X0Y243D02*
X7Y243D01*
X1763Y243D02*
X1770Y243D01*
X0Y242D02*
X7Y242D01*
X1763Y242D02*
X1770Y242D01*
X0Y241D02*
X7Y241D01*
X1763Y241D02*
X1770Y241D01*
X0Y240D02*
X7Y240D01*
X1763Y240D02*
X1770Y240D01*
X0Y239D02*
X7Y239D01*
X1763Y239D02*
X1770Y239D01*
X0Y238D02*
X7Y238D01*
X1763Y238D02*
X1770Y238D01*
X0Y237D02*
X7Y237D01*
X1763Y237D02*
X1770Y237D01*
X0Y236D02*
X7Y236D01*
X1763Y236D02*
X1770Y236D01*
X0Y235D02*
X7Y235D01*
X1763Y235D02*
X1770Y235D01*
X0Y234D02*
X7Y234D01*
X1763Y234D02*
X1770Y234D01*
X0Y233D02*
X7Y233D01*
X1763Y233D02*
X1770Y233D01*
X0Y232D02*
X7Y232D01*
X1763Y232D02*
X1770Y232D01*
X0Y231D02*
X7Y231D01*
X1763Y231D02*
X1770Y231D01*
X0Y230D02*
X7Y230D01*
X1763Y230D02*
X1770Y230D01*
X0Y229D02*
X7Y229D01*
X1763Y229D02*
X1770Y229D01*
X0Y228D02*
X7Y228D01*
X1763Y228D02*
X1770Y228D01*
X0Y227D02*
X7Y227D01*
X1763Y227D02*
X1770Y227D01*
X0Y226D02*
X7Y226D01*
X1763Y226D02*
X1770Y226D01*
X0Y225D02*
X7Y225D01*
X1763Y225D02*
X1770Y225D01*
X0Y224D02*
X7Y224D01*
X1763Y224D02*
X1770Y224D01*
X0Y223D02*
X7Y223D01*
X1763Y223D02*
X1770Y223D01*
X0Y222D02*
X7Y222D01*
X1763Y222D02*
X1770Y222D01*
X0Y221D02*
X7Y221D01*
X1763Y221D02*
X1770Y221D01*
X0Y220D02*
X7Y220D01*
X1763Y220D02*
X1770Y220D01*
X0Y219D02*
X7Y219D01*
X1763Y219D02*
X1770Y219D01*
X0Y218D02*
X7Y218D01*
X1763Y218D02*
X1770Y218D01*
X0Y217D02*
X7Y217D01*
X1763Y217D02*
X1770Y217D01*
X0Y216D02*
X7Y216D01*
X1763Y216D02*
X1770Y216D01*
X0Y215D02*
X7Y215D01*
X1763Y215D02*
X1770Y215D01*
X0Y214D02*
X7Y214D01*
X1763Y214D02*
X1770Y214D01*
X0Y213D02*
X7Y213D01*
X1763Y213D02*
X1770Y213D01*
X0Y212D02*
X7Y212D01*
X1763Y212D02*
X1770Y212D01*
X0Y211D02*
X7Y211D01*
X1763Y211D02*
X1770Y211D01*
X0Y210D02*
X7Y210D01*
X1763Y210D02*
X1770Y210D01*
X0Y209D02*
X7Y209D01*
X1763Y209D02*
X1770Y209D01*
X0Y208D02*
X7Y208D01*
X1763Y208D02*
X1770Y208D01*
X0Y207D02*
X7Y207D01*
X1763Y207D02*
X1770Y207D01*
X0Y206D02*
X7Y206D01*
X1763Y206D02*
X1770Y206D01*
X0Y205D02*
X7Y205D01*
X1763Y205D02*
X1770Y205D01*
X0Y204D02*
X7Y204D01*
X1763Y204D02*
X1770Y204D01*
X0Y203D02*
X7Y203D01*
X1763Y203D02*
X1770Y203D01*
X0Y202D02*
X7Y202D01*
X1763Y202D02*
X1770Y202D01*
X0Y201D02*
X7Y201D01*
X1763Y201D02*
X1770Y201D01*
X0Y200D02*
X7Y200D01*
X1763Y200D02*
X1770Y200D01*
X0Y199D02*
X7Y199D01*
X1763Y199D02*
X1770Y199D01*
X0Y198D02*
X7Y198D01*
X1763Y198D02*
X1770Y198D01*
X0Y197D02*
X7Y197D01*
X1763Y197D02*
X1770Y197D01*
X0Y196D02*
X7Y196D01*
X1763Y196D02*
X1770Y196D01*
X0Y195D02*
X7Y195D01*
X1763Y195D02*
X1770Y195D01*
X0Y194D02*
X7Y194D01*
X1763Y194D02*
X1770Y194D01*
X0Y193D02*
X7Y193D01*
X1763Y193D02*
X1770Y193D01*
X0Y192D02*
X7Y192D01*
X1763Y192D02*
X1770Y192D01*
X0Y191D02*
X7Y191D01*
X1763Y191D02*
X1770Y191D01*
X0Y190D02*
X7Y190D01*
X1763Y190D02*
X1770Y190D01*
X0Y189D02*
X7Y189D01*
X1763Y189D02*
X1770Y189D01*
X0Y188D02*
X7Y188D01*
X1763Y188D02*
X1770Y188D01*
X0Y187D02*
X7Y187D01*
X1763Y187D02*
X1770Y187D01*
X0Y186D02*
X7Y186D01*
X1763Y186D02*
X1770Y186D01*
X0Y185D02*
X7Y185D01*
X1763Y185D02*
X1770Y185D01*
X0Y184D02*
X7Y184D01*
X1763Y184D02*
X1770Y184D01*
X0Y183D02*
X7Y183D01*
X1763Y183D02*
X1770Y183D01*
X0Y182D02*
X7Y182D01*
X1763Y182D02*
X1770Y182D01*
X0Y181D02*
X7Y181D01*
X1763Y181D02*
X1770Y181D01*
X0Y180D02*
X7Y180D01*
X1763Y180D02*
X1770Y180D01*
X0Y179D02*
X7Y179D01*
X1763Y179D02*
X1770Y179D01*
X0Y178D02*
X7Y178D01*
X1763Y178D02*
X1770Y178D01*
X0Y177D02*
X7Y177D01*
X1763Y177D02*
X1770Y177D01*
X0Y176D02*
X7Y176D01*
X1763Y176D02*
X1770Y176D01*
X0Y175D02*
X7Y175D01*
X1763Y175D02*
X1770Y175D01*
X0Y174D02*
X7Y174D01*
X1763Y174D02*
X1770Y174D01*
X0Y173D02*
X7Y173D01*
X1763Y173D02*
X1770Y173D01*
X0Y172D02*
X7Y172D01*
X1763Y172D02*
X1770Y172D01*
X0Y171D02*
X7Y171D01*
X1763Y171D02*
X1770Y171D01*
X0Y170D02*
X7Y170D01*
X1763Y170D02*
X1770Y170D01*
X0Y169D02*
X7Y169D01*
X1763Y169D02*
X1770Y169D01*
X0Y168D02*
X7Y168D01*
X1763Y168D02*
X1770Y168D01*
X0Y167D02*
X7Y167D01*
X1763Y167D02*
X1770Y167D01*
X0Y166D02*
X7Y166D01*
X1763Y166D02*
X1770Y166D01*
X0Y165D02*
X7Y165D01*
X1763Y165D02*
X1770Y165D01*
X0Y164D02*
X7Y164D01*
X1763Y164D02*
X1770Y164D01*
X0Y163D02*
X7Y163D01*
X1763Y163D02*
X1770Y163D01*
X0Y162D02*
X7Y162D01*
X1763Y162D02*
X1770Y162D01*
X0Y161D02*
X7Y161D01*
X1763Y161D02*
X1770Y161D01*
X0Y160D02*
X7Y160D01*
X1763Y160D02*
X1770Y160D01*
X0Y159D02*
X7Y159D01*
X1763Y159D02*
X1770Y159D01*
X0Y158D02*
X7Y158D01*
X1763Y158D02*
X1770Y158D01*
X0Y157D02*
X7Y157D01*
X1763Y157D02*
X1770Y157D01*
X0Y156D02*
X7Y156D01*
X1763Y156D02*
X1770Y156D01*
X0Y155D02*
X7Y155D01*
X1763Y155D02*
X1770Y155D01*
X0Y154D02*
X7Y154D01*
X1763Y154D02*
X1770Y154D01*
X0Y153D02*
X7Y153D01*
X1763Y153D02*
X1770Y153D01*
X0Y152D02*
X7Y152D01*
X1763Y152D02*
X1770Y152D01*
X0Y151D02*
X7Y151D01*
X1763Y151D02*
X1770Y151D01*
X0Y150D02*
X7Y150D01*
X1763Y150D02*
X1770Y150D01*
X0Y149D02*
X7Y149D01*
X1763Y149D02*
X1770Y149D01*
X0Y148D02*
X7Y148D01*
X1763Y148D02*
X1770Y148D01*
X0Y147D02*
X7Y147D01*
X1763Y147D02*
X1770Y147D01*
X0Y146D02*
X7Y146D01*
X1763Y146D02*
X1770Y146D01*
X0Y145D02*
X7Y145D01*
X1763Y145D02*
X1770Y145D01*
X0Y144D02*
X7Y144D01*
X1763Y144D02*
X1770Y144D01*
X0Y143D02*
X7Y143D01*
X1763Y143D02*
X1770Y143D01*
X0Y142D02*
X7Y142D01*
X1763Y142D02*
X1770Y142D01*
X0Y141D02*
X7Y141D01*
X1763Y141D02*
X1770Y141D01*
X0Y140D02*
X7Y140D01*
X1763Y140D02*
X1770Y140D01*
X0Y139D02*
X7Y139D01*
X1763Y139D02*
X1770Y139D01*
X0Y138D02*
X7Y138D01*
X1763Y138D02*
X1770Y138D01*
X0Y137D02*
X7Y137D01*
X1763Y137D02*
X1770Y137D01*
X0Y136D02*
X7Y136D01*
X1763Y136D02*
X1770Y136D01*
X0Y135D02*
X7Y135D01*
X1763Y135D02*
X1770Y135D01*
X0Y134D02*
X7Y134D01*
X1763Y134D02*
X1770Y134D01*
X0Y133D02*
X7Y133D01*
X1763Y133D02*
X1770Y133D01*
X0Y132D02*
X7Y132D01*
X1763Y132D02*
X1770Y132D01*
X0Y131D02*
X7Y131D01*
X1763Y131D02*
X1770Y131D01*
X0Y130D02*
X7Y130D01*
X1763Y130D02*
X1770Y130D01*
X0Y129D02*
X7Y129D01*
X1763Y129D02*
X1770Y129D01*
X0Y128D02*
X7Y128D01*
X1763Y128D02*
X1770Y128D01*
X0Y127D02*
X7Y127D01*
X1763Y127D02*
X1770Y127D01*
X0Y126D02*
X7Y126D01*
X1763Y126D02*
X1770Y126D01*
X0Y125D02*
X7Y125D01*
X1763Y125D02*
X1770Y125D01*
X0Y124D02*
X7Y124D01*
X1763Y124D02*
X1770Y124D01*
X0Y123D02*
X7Y123D01*
X1763Y123D02*
X1770Y123D01*
X0Y122D02*
X7Y122D01*
X1763Y122D02*
X1770Y122D01*
X0Y121D02*
X7Y121D01*
X1763Y121D02*
X1770Y121D01*
X0Y120D02*
X7Y120D01*
X1763Y120D02*
X1770Y120D01*
X0Y119D02*
X7Y119D01*
X1763Y119D02*
X1770Y119D01*
X0Y118D02*
X7Y118D01*
X1763Y118D02*
X1770Y118D01*
X0Y117D02*
X7Y117D01*
X1763Y117D02*
X1770Y117D01*
X0Y116D02*
X7Y116D01*
X1763Y116D02*
X1770Y116D01*
X0Y115D02*
X7Y115D01*
X1763Y115D02*
X1770Y115D01*
X0Y114D02*
X7Y114D01*
X1763Y114D02*
X1770Y114D01*
X0Y113D02*
X7Y113D01*
X1763Y113D02*
X1770Y113D01*
X0Y112D02*
X7Y112D01*
X1763Y112D02*
X1770Y112D01*
X0Y111D02*
X7Y111D01*
X1763Y111D02*
X1770Y111D01*
X0Y110D02*
X7Y110D01*
X1763Y110D02*
X1770Y110D01*
X0Y109D02*
X7Y109D01*
X1763Y109D02*
X1770Y109D01*
X0Y108D02*
X7Y108D01*
X1763Y108D02*
X1770Y108D01*
X0Y107D02*
X7Y107D01*
X1763Y107D02*
X1770Y107D01*
X0Y106D02*
X7Y106D01*
X1763Y106D02*
X1770Y106D01*
X0Y105D02*
X7Y105D01*
X1763Y105D02*
X1770Y105D01*
X0Y104D02*
X7Y104D01*
X1763Y104D02*
X1770Y104D01*
X0Y103D02*
X7Y103D01*
X1763Y103D02*
X1770Y103D01*
X0Y102D02*
X7Y102D01*
X1763Y102D02*
X1770Y102D01*
X0Y101D02*
X7Y101D01*
X1763Y101D02*
X1770Y101D01*
X0Y100D02*
X7Y100D01*
X1763Y100D02*
X1770Y100D01*
X0Y99D02*
X7Y99D01*
X1763Y99D02*
X1770Y99D01*
X0Y98D02*
X7Y98D01*
X1763Y98D02*
X1770Y98D01*
X0Y97D02*
X7Y97D01*
X1763Y97D02*
X1770Y97D01*
X0Y96D02*
X7Y96D01*
X1763Y96D02*
X1770Y96D01*
X0Y95D02*
X7Y95D01*
X1763Y95D02*
X1770Y95D01*
X0Y94D02*
X7Y94D01*
X1763Y94D02*
X1770Y94D01*
X0Y93D02*
X7Y93D01*
X1763Y93D02*
X1770Y93D01*
X0Y92D02*
X7Y92D01*
X1763Y92D02*
X1770Y92D01*
X0Y91D02*
X7Y91D01*
X1763Y91D02*
X1770Y91D01*
X0Y90D02*
X7Y90D01*
X1763Y90D02*
X1770Y90D01*
X0Y89D02*
X7Y89D01*
X1763Y89D02*
X1770Y89D01*
X0Y88D02*
X7Y88D01*
X1763Y88D02*
X1770Y88D01*
X0Y87D02*
X7Y87D01*
X1763Y87D02*
X1770Y87D01*
X0Y86D02*
X7Y86D01*
X1763Y86D02*
X1770Y86D01*
X0Y85D02*
X7Y85D01*
X1763Y85D02*
X1770Y85D01*
X0Y84D02*
X7Y84D01*
X1763Y84D02*
X1770Y84D01*
X0Y83D02*
X7Y83D01*
X1763Y83D02*
X1770Y83D01*
X0Y82D02*
X7Y82D01*
X1763Y82D02*
X1770Y82D01*
X0Y81D02*
X7Y81D01*
X1763Y81D02*
X1770Y81D01*
X0Y80D02*
X7Y80D01*
X1763Y80D02*
X1770Y80D01*
X0Y79D02*
X7Y79D01*
X1763Y79D02*
X1770Y79D01*
X0Y78D02*
X7Y78D01*
X1763Y78D02*
X1770Y78D01*
X0Y77D02*
X7Y77D01*
X1763Y77D02*
X1770Y77D01*
X0Y76D02*
X7Y76D01*
X1763Y76D02*
X1770Y76D01*
X0Y75D02*
X7Y75D01*
X1763Y75D02*
X1770Y75D01*
X0Y74D02*
X7Y74D01*
X1763Y74D02*
X1770Y74D01*
X0Y73D02*
X7Y73D01*
X1763Y73D02*
X1770Y73D01*
X0Y72D02*
X7Y72D01*
X1763Y72D02*
X1770Y72D01*
X0Y71D02*
X7Y71D01*
X1763Y71D02*
X1770Y71D01*
X0Y70D02*
X7Y70D01*
X1763Y70D02*
X1770Y70D01*
X0Y69D02*
X7Y69D01*
X1763Y69D02*
X1770Y69D01*
X0Y68D02*
X7Y68D01*
X1763Y68D02*
X1770Y68D01*
X0Y67D02*
X7Y67D01*
X1763Y67D02*
X1770Y67D01*
X0Y66D02*
X7Y66D01*
X1763Y66D02*
X1770Y66D01*
X0Y65D02*
X7Y65D01*
X1763Y65D02*
X1770Y65D01*
X0Y64D02*
X7Y64D01*
X1763Y64D02*
X1770Y64D01*
X0Y63D02*
X7Y63D01*
X1763Y63D02*
X1770Y63D01*
X0Y62D02*
X7Y62D01*
X1763Y62D02*
X1770Y62D01*
X0Y61D02*
X7Y61D01*
X1763Y61D02*
X1770Y61D01*
X0Y60D02*
X7Y60D01*
X1763Y60D02*
X1770Y60D01*
X0Y59D02*
X7Y59D01*
X1763Y59D02*
X1770Y59D01*
X0Y58D02*
X7Y58D01*
X1763Y58D02*
X1770Y58D01*
X0Y57D02*
X7Y57D01*
X1763Y57D02*
X1770Y57D01*
X0Y56D02*
X7Y56D01*
X1763Y56D02*
X1770Y56D01*
X0Y55D02*
X7Y55D01*
X1763Y55D02*
X1770Y55D01*
X0Y54D02*
X7Y54D01*
X1763Y54D02*
X1770Y54D01*
X0Y53D02*
X7Y53D01*
X1763Y53D02*
X1770Y53D01*
X0Y52D02*
X7Y52D01*
X1763Y52D02*
X1770Y52D01*
X0Y51D02*
X7Y51D01*
X1763Y51D02*
X1770Y51D01*
X0Y50D02*
X7Y50D01*
X1763Y50D02*
X1770Y50D01*
X0Y49D02*
X7Y49D01*
X1763Y49D02*
X1770Y49D01*
X0Y48D02*
X7Y48D01*
X1763Y48D02*
X1770Y48D01*
X0Y47D02*
X7Y47D01*
X1763Y47D02*
X1770Y47D01*
X0Y46D02*
X7Y46D01*
X1763Y46D02*
X1770Y46D01*
X0Y45D02*
X7Y45D01*
X1763Y45D02*
X1770Y45D01*
X0Y44D02*
X7Y44D01*
X1763Y44D02*
X1770Y44D01*
X0Y43D02*
X7Y43D01*
X1763Y43D02*
X1770Y43D01*
X0Y42D02*
X7Y42D01*
X1763Y42D02*
X1770Y42D01*
X0Y41D02*
X7Y41D01*
X1763Y41D02*
X1770Y41D01*
X0Y40D02*
X7Y40D01*
X1763Y40D02*
X1770Y40D01*
X0Y39D02*
X7Y39D01*
X1763Y39D02*
X1770Y39D01*
X0Y38D02*
X7Y38D01*
X1763Y38D02*
X1770Y38D01*
X0Y37D02*
X7Y37D01*
X1763Y37D02*
X1770Y37D01*
X0Y36D02*
X7Y36D01*
X1763Y36D02*
X1770Y36D01*
X0Y35D02*
X7Y35D01*
X1763Y35D02*
X1770Y35D01*
X0Y34D02*
X7Y34D01*
X1763Y34D02*
X1770Y34D01*
X0Y33D02*
X7Y33D01*
X1763Y33D02*
X1770Y33D01*
X0Y32D02*
X7Y32D01*
X1763Y32D02*
X1770Y32D01*
X0Y31D02*
X7Y31D01*
X1763Y31D02*
X1770Y31D01*
X0Y30D02*
X7Y30D01*
X1763Y30D02*
X1770Y30D01*
X0Y29D02*
X7Y29D01*
X1763Y29D02*
X1770Y29D01*
X0Y28D02*
X7Y28D01*
X1763Y28D02*
X1770Y28D01*
X0Y27D02*
X7Y27D01*
X1763Y27D02*
X1770Y27D01*
X0Y26D02*
X7Y26D01*
X1763Y26D02*
X1770Y26D01*
X0Y25D02*
X7Y25D01*
X1763Y25D02*
X1770Y25D01*
X0Y24D02*
X7Y24D01*
X1763Y24D02*
X1770Y24D01*
X0Y23D02*
X7Y23D01*
X1763Y23D02*
X1770Y23D01*
X0Y22D02*
X7Y22D01*
X1763Y22D02*
X1770Y22D01*
X0Y21D02*
X7Y21D01*
X1763Y21D02*
X1770Y21D01*
X0Y20D02*
X7Y20D01*
X1763Y20D02*
X1770Y20D01*
X0Y19D02*
X7Y19D01*
X1763Y19D02*
X1770Y19D01*
X0Y18D02*
X7Y18D01*
X1763Y18D02*
X1770Y18D01*
X0Y17D02*
X7Y17D01*
X1763Y17D02*
X1770Y17D01*
X0Y16D02*
X7Y16D01*
X1763Y16D02*
X1770Y16D01*
X0Y15D02*
X7Y15D01*
X1763Y15D02*
X1770Y15D01*
X0Y14D02*
X7Y14D01*
X1763Y14D02*
X1770Y14D01*
X0Y13D02*
X7Y13D01*
X1763Y13D02*
X1770Y13D01*
X0Y12D02*
X7Y12D01*
X1763Y12D02*
X1770Y12D01*
X0Y11D02*
X7Y11D01*
X1763Y11D02*
X1770Y11D01*
X0Y10D02*
X7Y10D01*
X1763Y10D02*
X1770Y10D01*
X0Y9D02*
X1770Y9D01*
X0Y8D02*
X1770Y8D01*
X0Y7D02*
X1770Y7D01*
X0Y6D02*
X1770Y6D01*
X0Y5D02*
X1770Y5D01*
X0Y4D02*
X1770Y4D01*
X0Y3D02*
X1770Y3D01*
X0Y2D02*
X1770Y2D01*
D02*
G04 End of Silk1*
M02*