G04 MADE WITH FRITZING*
G04 WWW.FRITZING.ORG*
G04 DOUBLE SIDED*
G04 HOLES PLATED*
G04 CONTOUR ON CENTER OF CONTOUR VECTOR*
%ASAXBY*%
%FSLAX23Y23*%
%MOIN*%
%OFA0B0*%
%SFA1.0B1.0*%
%ADD10C,0.078000*%
%ADD11C,0.068000*%
%ADD12C,0.024000*%
%LNCOPPER0*%
G90*
G70*
G54D10*
X155Y255D03*
X155Y155D03*
X455Y455D03*
X455Y355D03*
X455Y255D03*
X1455Y455D03*
X1455Y355D03*
X1455Y255D03*
G54D11*
X855Y555D03*
X855Y455D03*
X855Y355D03*
X855Y255D03*
X1155Y255D03*
X1155Y355D03*
X1155Y455D03*
X1155Y555D03*
G54D12*
X185Y255D02*
X256Y254D01*
D02*
X256Y254D02*
X425Y255D01*
D02*
X485Y355D02*
X654Y354D01*
D02*
X654Y354D02*
X654Y155D01*
D02*
X654Y155D02*
X185Y155D01*
D02*
X656Y456D02*
X828Y455D01*
D02*
X485Y455D02*
X656Y456D01*
D02*
X856Y155D02*
X185Y155D01*
D02*
X855Y228D02*
X856Y155D01*
D02*
X1155Y582D02*
X1154Y656D01*
D02*
X355Y655D02*
X155Y655D01*
D02*
X155Y655D02*
X155Y554D01*
D02*
X1154Y656D02*
X355Y655D01*
D02*
X155Y554D02*
X155Y285D01*
D02*
X1154Y655D02*
X1654Y655D01*
D02*
X1654Y655D02*
X1656Y354D01*
D02*
X1155Y582D02*
X1154Y655D01*
D02*
X1656Y354D02*
X1485Y355D01*
D02*
X1182Y455D02*
X1425Y455D01*
D02*
X185Y155D02*
X1455Y155D01*
D02*
X1455Y155D02*
X1455Y225D01*
G04 End of Copper0*
M02*